<svg width="151" height="151" viewBox="0 0 151 151" fill="none" xmlns="http://www.w3.org/2000/svg">
<rect x="0.5" y="0.816895" width="150" height="150" rx="75" fill="white"/>
<g opacity="0.4" clip-path="url(#clip0)">
<path d="M80.2306 58.2396C80.2306 55.6268 78.1126 53.5088 75.4998 53.5088C72.887 53.5088 70.769 55.6268 70.769 58.2396V74.009C66.4165 74.0142 62.8895 77.5412 62.8843 81.8937V90.3319L69.192 98.2166V100.817H72.3459V97.1096L66.0382 89.2249V81.8937C66.0382 79.2809 68.1562 77.1629 70.769 77.1629V88.2014H73.9229V58.2396C73.9229 57.3686 74.6288 56.6627 75.4998 56.6627C76.3708 56.6627 77.0767 57.3686 77.0767 58.2396V72.0599L82.2333 73.4665L83.0628 70.423L80.2243 69.6503L80.2306 58.2396Z" fill="black"/>
<path d="M85.2755 74.3046L88.3184 75.1338L89.1475 72.0909L86.1047 71.2618L85.2755 74.3046Z" fill="black"/>
<path d="M91.3624 75.955L94.4232 76.7908V90.8303L89.6924 97.138V100.817H92.8463V98.1883L97.5771 91.8805V74.3812L92.1918 72.9131L91.3624 75.955Z" fill="black"/>
<path d="M59.2684 53.0467L57.0386 50.8169L51.1929 56.6626L57.0386 62.5083L59.2684 60.2785L57.2294 58.2395H61.3074V55.0857H57.2294L59.2684 53.0467Z" fill="black"/>
<path d="M67.6153 55.0854H64.4614V58.2393H67.6153V55.0854Z" fill="black"/>
<path d="M91.7314 60.2785L93.9612 62.5083L99.8069 56.6626L93.9612 50.8169L91.7314 53.0467L93.7703 55.0857H89.6924V58.2395H93.7703L91.7314 60.2785Z" fill="black"/>
<path d="M86.5382 55.0854H83.3843V58.2393H86.5382V55.0854Z" fill="black"/>
</g>
<defs>
<clipPath id="clip0">
<rect width="50" height="50" fill="white" transform="translate(50.5 50.8169)"/>
</clipPath>
</defs>
</svg>
