<svg width="150" height="54" viewBox="0 0 150 54" fill="none" xmlns="http://www.w3.org/2000/svg">
<path d="M-0.000488281 0.584961V4.01435H30.0175V0.584961H13.5431H-0.000488281ZM-0.000488281 39.9133H3.42495V14.2114H-0.000488281V26.0608V39.9133ZM11.8805 14.2114V39.9133H15.3059V20.7716L26.2347 39.9133H30.0175V14.2114H26.5921V33.7724L15.4511 14.2114H11.8805ZM46.9222 25.0676C42.9004 24.0018 40.8595 23.0176 40.8595 20.6023C40.8595 18.2766 42.9095 16.713 45.9606 16.713C49.1493 16.713 51.0597 18.148 51.2628 20.6733H54.4962C54.2871 16.3517 51.1267 13.7889 45.9602 13.7889C40.7013 13.7889 37.561 16.4614 37.561 20.9325C37.561 25.081 40.3064 26.671 45.7144 28.3127L46.1341 28.4413C49.341 29.4216 51.8762 30.1967 51.8762 32.9381C51.8762 35.7309 49.8053 37.3312 46.196 37.3312C41.3892 37.3312 40.4481 34.6662 40.3009 33.1657H37.0743C37.3244 37.5548 40.925 40.3669 46.3637 40.3669C54.3041 40.3669 55.1616 35.1577 55.1616 32.9196C55.1616 28.8898 52.6978 26.5413 46.9222 25.0676ZM62.435 39.9133H65.8604V14.2114H62.435V23.8933V39.9133ZM88.5048 31.9638C88.5048 35.439 86.5649 37.3572 83.044 37.3572C79.4505 37.3572 77.3895 35.3908 77.3895 31.9634V22.4082C77.3895 18.5409 79.3334 16.5805 83.1683 16.5805C85.606 16.5805 87.1495 17.3576 88.2607 19.1653L90.9177 18.0005C89.6022 15.181 86.8351 13.6319 83.0775 13.6319C77.371 13.6319 73.9641 16.9122 73.9641 22.4086V31.963C73.9641 37.7157 78.2411 40.2915 82.4772 40.2915C85.2581 40.2915 87.5372 39.2758 88.7293 37.5055L89.3857 36.5332L89.5758 39.9137H91.9279V26.1156H84.1157V28.8701H88.5048V31.9638ZM104.821 14.2114H101.213V39.9133H104.606V21.3325L111.038 37.9153H113.563L120.03 21.3455V39.9137H123.42V14.2114H119.813L112.318 33.1779L104.821 14.2114ZM135.936 29.3912L139.629 17.6049L143.318 29.3912H135.936ZM141.406 14.2114H137.85L129.27 39.914H132.801L135.188 32.3378H144.068L146.437 39.9137H149.999L141.406 14.211L141.406 14.2114ZM119.981 49.9849V53.4139H150V49.9845H133.526" fill="#222222"/>
</svg>
