<svg width="105" height="80" viewBox="0 0 105 80" fill="none" xmlns="http://www.w3.org/2000/svg">
<path d="M103.178 2.00293H1.17773V4.19678H103.178V2.00293Z" fill="#99B9FF"/>
<path d="M0 2.78162C0 1.50153 1.08496 0.466797 2.41885 0.466797C3.75647 0.466797 4.83771 1.50153 4.83771 2.78162C4.83771 4.0617 3.75275 5.09644 2.41885 5.09644C1.08124 5.09644 0 4.05814 0 2.78162Z" fill="#99B9FF"/>
<path d="M100.061 2.77972C100.061 1.49961 101.145 0.464844 102.479 0.464844C103.817 0.464844 104.898 1.49961 104.898 2.77972C104.898 4.05984 103.817 5.0946 102.479 5.0946C101.142 5.0946 100.061 4.05628 100.061 2.77972Z" fill="#99B9FF"/>
<path d="M93.2687 2.06316V77.5376C85.4399 78.8177 65.0005 77.719 53.3521 78.999C41.7001 80.2791 15.2637 78.5617 15.2637 78.5617V2.41517C15.2637 1.16355 16.3189 0.153713 17.6268 0.150157C29.2343 0.132379 80.1266 0.0576905 91.1545 0.0434675C92.3212 0.0399117 93.2687 0.946648 93.2687 2.06316Z" fill="#D50000"/>
<path d="M93.2686 48.1455V77.5374C85.4399 78.8175 65.0005 77.7188 53.3521 78.9988C41.7 80.2789 15.2637 78.5615 15.2637 78.5615V50.2754C15.4457 49.2656 15.5498 48.6789 15.5498 48.6789C15.5498 48.6789 32.5337 49.9376 47.6227 49.0238C62.6336 48.1135 80.6691 50.4603 93.2686 48.1455Z" fill="#E35454"/>
<path d="M29.5708 65.4167C23.1874 65.4167 15.7265 65.1216 15.3066 65.1074L15.3847 63.2833C15.5222 63.2868 29.1621 63.8238 35.3411 63.4682L36.7976 63.3828C44.2845 62.9384 59.8602 62.0138 66.3699 63.0521C73.058 64.1189 93.698 62.8104 93.9061 62.7961L94.0324 64.6203C93.1741 64.6771 72.9577 65.9537 66.0541 64.8549C59.7599 63.8522 43.7494 64.8016 36.9165 65.2069L35.4562 65.2923C33.8474 65.3812 31.7704 65.4167 29.5708 65.4167Z" fill="white"/>
<path d="M29.5649 69.4377C23.1815 69.4377 15.7206 69.1426 15.3008 69.1284L15.3788 67.3008C15.5163 67.3044 29.1562 67.8413 35.3352 67.4857L36.7917 67.4004C44.2786 66.9559 59.8544 66.0314 66.3641 67.0697C73.0521 68.1364 93.6922 66.8279 93.9002 66.8173L94.0266 68.6413C93.1683 68.6946 72.9555 69.9746 66.0482 68.8759C59.754 67.8697 43.7436 68.8226 36.9106 69.228L35.4504 69.3133C33.8452 69.4022 31.7682 69.4377 29.5649 69.4377Z" fill="white"/>
</svg>
